<svg xmlns="http://www.w3.org/2000/svg" width="230" height="151" fill="none" viewBox="0 0 230 151"><g clip-path="url(#clip0_525_341)"><g clip-path="url(#clip1_525_341)" opacity=".5"><path fill="#fed639" d="M195.25 22.58c0 16.278-13.196 29.474-29.474 29.474s-29.473-13.196-29.473-29.474 13.196-29.473 29.473-29.473S195.25 6.302 195.25 22.58"/><path fill="#db2f38" d="M17.425 88.618c0 16.278-13.196 29.474-29.474 29.474s-29.474-13.196-29.474-29.474 13.196-29.473 29.474-29.473S17.425 72.34 17.425 88.618"/><path fill="#1840b2" d="M68.683 88.618c0 16.278-13.196 29.474-29.474 29.474S9.737 104.896 9.737 88.618 22.933 59.145 39.21 59.145 68.684 72.34 68.684 88.618"/><path fill="#4c9a30" d="M68.683 147.565c0 16.278-13.196 29.474-29.474 29.474S9.737 163.843 9.737 147.565s13.196-29.473 29.473-29.473 29.474 13.196 29.474 29.473"/><path fill="#01babb" d="M17.425 176.185c0-15.407-6.21-30.184-17.266-41.078-11.054-10.895-26.048-17.015-41.682-17.015-15.633 0-30.627 6.12-41.682 17.015s-17.265 25.671-17.265 41.078z"/><path fill="#fed639" d="M-41.523 59.145c15.408 0 30.184-6.21 41.078-17.266C10.45 30.825 16.57 15.831 16.57.197c0-15.633-6.12-30.627-17.015-41.682-10.894-11.054-25.67-17.265-41.078-17.265z"/><path fill="#db2f38" d="M239.75-6.893a44.43 44.43 0 0 0-41.043 27.423 44.4 44.4 0 0 0-3.381 17h44.424z"/><path fill="#01babb" d="M195.326 99.895h44.424V229.75h-44.424z"/><path fill="#db2f38" d="M195.326 37.531h44.424v62.364h-44.424z"/><path fill="#fed639" d="M150.902 99.895h44.424V229.75h-44.424z"/></g><path fill="url(#paint0_linear_525_341)" fill-rule="evenodd" d="M59.493 62.758c3.235.441 6.03 2.094 8.005 4.685a11.96 11.96 0 0 1 2.357 8.929c-.438 3.251-2.083 6.062-4.66 8.046a11.87 11.87 0 0 1-8.937 2.37l-13.871-1.874c-2.358-.33-4.441-1.653-5.648-3.692l-3.618-6.008c-1.097-1.819-1.426-4.078-.823-6.118l3.51-12.346c1.864-6.393 8.553-10.14 14.967-8.267 3.126.882 5.702 2.921 7.238 5.787 1.425 2.59 1.809 5.567 1.206 8.433zm-9.869-10.306c-4.222-1.268-8.663 1.212-9.869 5.456l-4.167 14.55a22.12 22.12 0 0 1 19.519-10.14 8.16 8.16 0 0 0-.713-6.008 8.1 8.1 0 0 0-4.77-3.858M37.452 77.749c2.687-6.779 9.157-11.298 16.394-11.408-2.687 6.834-9.266 11.298-16.394 11.408m19.354 4.96a7.62 7.62 0 0 0 5.922-1.543 7.6 7.6 0 0 0 3.015-5.346c.33-2.15-.274-4.243-1.535-5.952a7.82 7.82 0 0 0-5.263-3.087l-.878-.11a22.14 22.14 0 0 1-14.584 14.22z" clip-rule="evenodd"/><path fill="#1e1b4d" d="M84.878 97.59v4.355h1.59v-5.016c0-1.598 1.042-2.866 2.686-2.866 1.371 0 2.194.827 2.194 2.59v5.292h1.59v-5.401c0-2.701-1.261-3.969-3.345-3.969-1.26 0-2.357.607-3.015 1.709h-.11l-.165-1.543h-1.535c.11 1.598.11 3.196.11 4.85"/><path fill="#1e1b4d" fill-rule="evenodd" d="M102.916 97.811h-6.689c.165 1.764 1.206 2.866 2.742 2.866 1.041 0 1.809-.441 2.357-1.543l1.426.496c-.658 1.543-1.974 2.37-3.783 2.37-2.687 0-4.387-2.094-4.387-4.74 0-2.645 1.645-4.74 4.332-4.74 2.412 0 4.057 1.654 4.057 4.52 0 .11-.014.248-.027.385-.014.138-.028.276-.028.386m-6.689-1.323h5.209c-.165-1.708-1.097-2.645-2.522-2.645-1.48 0-2.467 1.047-2.687 2.645" clip-rule="evenodd"/><path fill="#1e1b4d" d="M105.603 94.008v5.402c0 1.708.987 2.59 2.467 2.59.713 0 1.316-.165 2.029-.606l-.494-1.103c-.438.276-.822.386-1.261.386-.658 0-1.151-.441-1.151-1.323v-5.346h2.631v-1.322h-2.631V90.15h-1.097l-.384 2.536h-1.919v1.322zm7.621 7.827-2.522-9.15h1.645l1.864 7.331h.109l1.755-7.33h1.974l1.699 7.33h.11l1.864-7.33h1.59l-2.522 9.149h-1.974l-1.754-7.551h-.11l-1.809 7.551z"/><path fill="#1e1b4d" fill-rule="evenodd" d="M128.301 92.52c-2.741 0-4.386 2.095-4.386 4.74s1.7 4.74 4.386 4.74c2.742 0 4.386-2.094 4.386-4.74 0-2.645-1.699-4.74-4.386-4.74m0 1.433c1.645 0 2.742 1.323 2.742 3.307s-1.097 3.307-2.742 3.307-2.741-1.323-2.741-3.307 1.096-3.307 2.741-3.307" clip-rule="evenodd"/><path fill="#1e1b4d" d="M139.651 92.52v1.543h-.658c-1.426 0-2.961.882-2.961 3.583v4.189h-1.59v-4.244c0-1.654 0-3.252-.11-4.85h1.535l.22 1.819h.109c.549-1.268 1.536-1.985 2.797-1.985.164-.055.329-.055.658-.055m1.315-3.252v12.567h1.536V97.26l4.112 4.575h2.138l-4.331-4.795 4.276-4.354h-2.083l-4.058 4.354v-7.772z"/><path fill="#1e1b4d" fill-rule="evenodd" d="M82.191 59.782c0-.606.22-1.102.603-1.433.384-.33.933-.496 1.59-.496.288 0 .575.042.899.09l.143.02c.33.055.658.165.877.276v10.306c.658-.882 1.536-1.543 2.523-2.04 1.041-.495 2.193-.716 3.509-.716 1.7 0 3.234.386 4.605 1.213a9.2 9.2 0 0 1 3.29 3.362c.822 1.433 1.206 3.031 1.206 4.905 0 1.819-.439 3.472-1.261 4.905-.823 1.433-1.974 2.536-3.454 3.362s-3.18 1.213-5.1 1.213c-1.918 0-3.563-.386-4.989-1.213-1.425-.826-2.467-1.984-3.234-3.582-.768-1.543-1.152-3.417-1.152-5.567V59.782zm13.433 11.243c-1.042-1.047-2.357-1.598-3.947-1.598s-2.961.551-3.948 1.598c-1.042 1.047-1.535 2.48-1.535 4.244s.493 3.142 1.535 4.244c1.042 1.047 2.358 1.598 3.948 1.598s2.905-.55 3.947-1.598c1.042-1.047 1.535-2.48 1.535-4.244s-.493-3.197-1.535-4.244m12.282 12.567c1.48.771 3.125 1.157 4.989 1.157.735 0 1.513-.088 2.375-.185h.001l.31-.035a17 17 0 0 0 2.522-.662 9.5 9.5 0 0 0 1.974-.937l-1.48-2.866c-1.426.827-3.07 1.268-4.825 1.268-1.645 0-2.961-.386-4.057-1.102-1.097-.772-1.755-1.764-1.919-2.977.213 0 .438.013.671.027.246.014.5.028.754.028h1.207c3.563 0 6.195-.44 7.84-1.377s2.467-2.315 2.467-4.19c0-1.818-.713-3.306-2.138-4.353-1.426-1.047-3.235-1.599-5.538-1.599-1.864 0-3.509.386-4.989 1.213a8.97 8.97 0 0 0-3.454 3.417c-.823 1.488-1.261 3.142-1.261 5.016 0 1.873.384 3.527 1.206 4.905.768 1.378 1.919 2.48 3.345 3.252m1.206-13.118c.987-1.047 2.248-1.543 3.838-1.543 1.096 0 2.028.276 2.686.772.713.496 1.042 1.157 1.042 1.984 0 1.874-2.029 2.81-6.141 2.81h-1.754c-.227 0-.454-.014-.673-.028a9 9 0 0 0-.588-.026c.055-1.654.603-2.977 1.59-3.969" clip-rule="evenodd"/><path fill="#1e1b4d" d="M128.521 59.782c0-.606.219-1.102.603-1.433.383-.33.932-.496 1.59-.496.287 0 .574.042.898.09l.143.02c.329.055.658.165.878.276v14.605l7.401-5.456a5.3 5.3 0 0 1 1.7-.937 4.7 4.7 0 0 1 1.371-.22c.658 0 1.206.11 1.59.385.383.276.712.606.877.992-.241.242-.599.514-1.054.858q-.25.189-.536.41l-.628.487-.011.009h-.001c-.531.414-1.097.854-1.718 1.323-.877.66-1.754 1.323-2.631 1.929-.268.184-.53.37-.785.55-.584.41-1.132.797-1.628 1.103 1.809 1.378 3.619 2.921 5.318 4.685 1.7 1.764 3.18 3.472 4.387 5.18h-5.044c-.658-.826-1.426-1.653-2.303-2.59a73 73 0 0 0-2.961-2.81 50 50 0 0 0-3.344-2.646v8.102h-4.058V59.782zm19.628.992c0 .716.274 1.268.713 1.764s1.041.716 1.754.716 1.316-.22 1.755-.716c.493-.441.712-1.048.712-1.764 0-.717-.274-1.268-.712-1.764-.439-.496-1.042-.716-1.755-.716s-1.316.22-1.754.716c-.494.441-.713 1.047-.713 1.764m.438 7.441v16.038h4.112V66.67a3.3 3.3 0 0 0-1.02-.296 6 6 0 0 0-.898-.09c-.658 0-1.207.166-1.59.496-.384.331-.604.827-.604 1.433m8.389 5.182c0-1.543.384-2.866 1.097-4.023.712-1.157 1.754-2.04 3.015-2.646 1.316-.606 2.796-.937 4.551-.937 1.754 0 3.289.331 4.55.937 1.316.607 2.303 1.544 3.016 2.646.713 1.157 1.096 2.48 1.096 4.023v10.858h-4.057v-9.81c0-1.599-.384-2.867-1.151-3.693-.768-.827-1.919-1.268-3.454-1.268q-4.606 0-4.606 4.96v9.81h-4.057z"/><path fill="#1e1b4d" fill-rule="evenodd" d="M195.794 79.954c.767-1.598 1.151-3.417 1.151-5.567H197V58.24a3.3 3.3 0 0 0-.877-.276l-.144-.02a6 6 0 0 0-.898-.09c-.658 0-1.206.165-1.59.496s-.603.827-.603 1.433v8.763c-.658-.882-1.48-1.543-2.522-2.04-1.042-.495-2.193-.716-3.509-.716-1.7 0-3.235.386-4.606 1.213a9.2 9.2 0 0 0-3.289 3.362c-.823 1.433-1.206 3.086-1.206 4.905s.438 3.472 1.261 4.905c.822 1.433 1.973 2.536 3.454 3.362 1.425.827 3.18 1.213 5.099 1.213s3.563-.386 4.989-1.213c1.371-.826 2.467-2.039 3.235-3.582m-13.872-4.685c0-1.764.494-3.197 1.536-4.244 1.041-1.102 2.357-1.598 3.947-1.598s2.906.551 3.948 1.598c1.042 1.103 1.535 2.48 1.535 4.244s-.493 3.197-1.535 4.244c-.987 1.047-2.358 1.598-3.948 1.598s-2.906-.55-3.947-1.598c-1.042-1.102-1.536-2.48-1.536-4.244" clip-rule="evenodd"/></g><defs><clipPath id="clip0_525_341"><path fill="#fff" d="M0 0h230v151H0z"/></clipPath><clipPath id="clip1_525_341"><path fill="#fff" d="M230-147v324H0v-324z"/></clipPath><linearGradient id="paint0_linear_525_341" x1="26.05" x2="26.207" y1="51.574" y2="86.324" gradientUnits="userSpaceOnUse"><stop offset=".014" stop-color="#4553ff"/><stop offset=".479" stop-color="#00c2c2"/><stop offset=".961" stop-color="#fedb40"/></linearGradient></defs></svg>